<?xml version="1.0" standalone="no"?><!DOCTYPE svg PUBLIC "-//W3C//DTD SVG 1.1//EN" "http://www.w3.org/Graphics/SVG/1.1/DTD/svg11.dtd"><svg t="1689141373268" class="icon" viewBox="0 0 1024 1024" version="1.1" xmlns="http://www.w3.org/2000/svg" p-id="109072" xmlns:xlink="http://www.w3.org/1999/xlink" width="32" height="32"><path d="M640 256 640 0 192 0 0 192l0 576 384 0 0 256 640 0L1024 256 640 256zM192 90.496 192 192 90.496 192 192 90.496zM64 704 64 256l192 0L256 64l320 0 0 192-192 192 0 256L64 704zM576 346.496 576 448l-101.504 0L576 346.496zM960 960 448 960 448 512l192 0 0-192 320 0L960 960z" fill="#000000" p-id="109073"></path></svg>