<?xml version="1.0" standalone="no"?><!DOCTYPE svg PUBLIC "-//W3C//DTD SVG 1.1//EN" "http://www.w3.org/Graphics/SVG/1.1/DTD/svg11.dtd"><svg t="1689142198633" class="icon" viewBox="0 0 1024 1024" version="1.1" xmlns="http://www.w3.org/2000/svg" p-id="132791" xmlns:xlink="http://www.w3.org/1999/xlink" width="32" height="32"><path d="M721.078044 642.571378a174.648889 174.648889 0 0 0-99.805866 30.970311H402.852978a175.945956 175.945956 0 0 0-99.805867-30.970311c-98.258489 0-177.902933 80.543289-177.902933 179.518578 0 98.986667 79.644444 179.518578 177.902933 179.518577 80.497778 0 148.593778-53.930667 170.484622-128.022755v0.170666l38.445511-109.067377 38.445512 109.067377v-0.170666c22.061511 74.092089 89.986844 128.022756 170.484622 128.022755 98.258489 0 177.902933-80.543289 177.902933-179.518577 0-98.986667-79.303111-179.518578-177.720889-179.518578zM303.047111 912.019911c-49.129244 0-88.951467-40.174933-88.951467-89.759289 0-49.572978 39.822222-89.747911 88.951467-89.747911s88.951467 40.174933 88.951467 89.747911c0 49.755022-39.822222 89.770667-88.951467 89.770667z m418.030933 0c-49.129244 0-88.951467-40.174933-88.951466-89.759289 0-49.572978 39.822222-89.747911 88.951466-89.747911s88.951467 40.174933 88.951467 89.747911c0 49.755022-39.822222 89.770667-88.951467 89.770667z" fill="#CEE8FA" p-id="132792"></path><path d="M303.047111 712.328533c-59.995022 0-108.9536 49.402311-108.9536 109.932089 0 60.541156 48.787911 109.943467 108.9536 109.943467 60.154311 0 108.942222-49.402311 108.942222-109.943467 0-60.529778-48.958578-109.932089-108.942222-109.932089z m0 179.518578c-38.104178 0-68.949333-31.140978-68.949333-69.586489 0-38.434133 30.845156-69.575111 68.949333-69.575111 37.922133 0 68.949333 31.311644 68.949333 69.575111 0 38.456889-30.856533 69.586489-68.949333 69.586489z" fill="#2D527C" p-id="132793"></path><path d="M721.601422 622.227911c-37.751467 0-74.126222 10.786133-105.847466 30.947556H458.865778l328.738133-588.458667A393.227378 393.227378 0 0 1 748.657778 435.040711l-69.12 101.762845c-6.212267 9.386667-3.970844 21.9136 5.165511 28.182755 9.307022 6.257778 21.731556 3.9936 27.932444-5.2224l69.12-101.762844a434.699378 434.699378 0 0 0 74.296889-219.875556A434.323911 434.323911 0 0 0 806.752711 11.150222a19.581156 19.581156 0 0 0-17.408-10.786133h-0.170667c-7.247644 0-13.789867 3.9936-17.408 10.262755L417.837511 644.482844l-142.563555-209.783466a393.272889 393.272889 0 0 1-38.957512-370.346667l193.251556 346.168889a19.911111 19.911111 0 0 0 27.2384 7.657244c9.648356-5.393067 12.925156-17.749333 7.5776-27.488711L252.017778 10.262756A19.831467 19.831467 0 0 0 234.609778 0h-0.170667c-7.247644 0-13.971911 4.346311-17.408 10.786133A434.323911 434.323911 0 0 0 167.708444 237.795556a433.072356 433.072356 0 0 0 74.296889 219.864177L359.424 630.397156a196.152889 196.152889 0 0 0-56.206222-8.169245C193.934222 622.227911 105.153422 711.793778 105.153422 822.089956c0 110.2848 88.7808 199.873422 198.075734 199.873422 43.611022 0 84.639289-14.097067 119.284622-40.539022a201.466311 201.466311 0 0 0 69.472711-99.498667c0.170667-0.512 0.341333-1.035378 0.512-1.388089l19.6608-55.660089 19.649422 55.660089c0.170667 0.341333 0.341333 0.864711 0.512 1.217422a199.793778 199.793778 0 0 0 69.472711 99.669334c34.474667 26.624 75.855644 40.539022 119.296 40.539022 109.294933 0 198.064356-89.588622 198.587734-199.873422 0-110.2848-88.7808-199.862044-198.064356-199.862045z m-0.523378 359.549156c-69.290667 0-131.527111-46.614756-151.3472-113.584356a10.763378 10.763378 0 0 0-1.206044-3.299555l-37.592178-106.814578a19.922489 19.922489 0 0 0-18.784711-13.391645 19.683556 19.683556 0 0 0-18.796089 13.391645L455.600356 864.711111c-0.341333 1.046756-0.853333 2.082133-1.206045 3.299556-19.820089 66.798933-82.056533 113.595733-151.3472 113.595733-87.233422 0-157.912178-71.327289-157.912178-159.345778 0-88.007111 70.8608-159.3344 157.912178-159.3344 31.891911 0 62.395733 9.568711 88.598756 27.488711 3.106133 2.264178 7.247644 3.4816 11.207111 3.4816h218.4192c3.959467 0 7.759644-1.2288 11.195733-3.4816a156.137244 156.137244 0 0 1 88.610133-27.488711c87.233422 0 157.912178 71.497956 157.912178 159.516445s-70.8608 159.3344-157.912178 159.3344z" fill="#2D527C" p-id="132794"></path><path d="M721.078044 712.328533c-59.983644 0-108.942222 49.402311-108.942222 109.932089 0 60.541156 48.787911 109.943467 108.942222 109.943467a107.406222 107.406222 0 0 0 77.061689-32.005689 110.557867 110.557867 0 0 0 31.891911-77.937778c0-60.529778-48.958578-109.932089-108.9536-109.932089z m48.787912 159.163734a68.7104 68.7104 0 0 1-48.787912 20.354844c-38.0928 0-68.949333-31.140978-68.949333-69.586489 0-38.445511 30.856533-69.575111 68.949333-69.575111 38.0928 0 68.949333 31.311644 68.949334 69.575111 0 18.614044-7.054222 36.181333-20.161422 49.231645z" fill="#2D527C" p-id="132795"></path></svg>