<?xml version="1.0" standalone="no"?><!DOCTYPE svg PUBLIC "-//W3C//DTD SVG 1.1//EN" "http://www.w3.org/Graphics/SVG/1.1/DTD/svg11.dtd"><svg t="1689168721551" class="icon" viewBox="0 0 1024 1024" version="1.1" xmlns="http://www.w3.org/2000/svg" p-id="354763" xmlns:xlink="http://www.w3.org/1999/xlink" width="32" height="32"><path d="M1024 960a64 64 0 0 1-64 64H64a64 64 0 0 1-64-64V320a64 64 0 0 1 64-64h896a64 64 0 0 1 64 64v640z" fill="#EDD87E" p-id="354764"></path><path d="M960 128H512V64a64 64 0 0 0-64-64H64a64 64 0 0 0-64 64v256a64 64 0 0 1 64-64h896a64 64 0 0 1 64 64V192a64 64 0 0 0-64-64z" fill="#434854" p-id="354765"></path><path d="M960 224H64a64 64 0 0 0-64 64v32a64 64 0 0 1 64-64h896a64 64 0 0 1 64 64V288a64 64 0 0 0-64-64z" opacity=".3" p-id="354766"></path><path d="M128 192h768v64H128z" fill="#EAEAEA" p-id="354767"></path></svg>