<?xml version="1.0" standalone="no"?><!DOCTYPE svg PUBLIC "-//W3C//DTD SVG 1.1//EN" "http://www.w3.org/Graphics/SVG/1.1/DTD/svg11.dtd"><svg t="1689133238909" class="icon" viewBox="0 0 1024 1024" version="1.1" xmlns="http://www.w3.org/2000/svg" p-id="2321" id="mx_n_1689133238909" xmlns:xlink="http://www.w3.org/1999/xlink" width="32" height="32"><path d="M512 512m-512 0a512 512 0 1 0 1024 0 512 512 0 1 0-1024 0Z" fill="#0099FF" p-id="2322"></path><path d="M505.551119 620.544732h-62.636473v-30.952343q0-37.80142 15.115994-64.980481t53.96936-57.422485q38.15588-29.511635 54.541069-55.261423t16.385189-59.217651q0-35.640359-25.383893-58.680245T488.605655 270.990218q-68.765197 0-120.962259 52.197061v-73.430345q60.475412-37.80142 131.035777-37.80142 70.19447 0 111.780606 36.898119t41.574702 96.664613q0 41.769083-19.438117 75.9573t-65.174862 72.035375q-36.715173 30.597883-49.315646 48.595292t-12.577606 50.401894z m-31.684131 75.236947a45.325115 45.325115 0 0 1 32.758944 13.320827 43.541382 43.541382 0 0 1 13.721024 32.404484q0 19.438117-13.721024 32.575997a45.645272 45.645272 0 0 1-32.758944 13.13788 45.096431 45.096431 0 0 1-32.015722-12.954933q-13.721024-12.954933-13.721023-32.758944 0-19.438117 13.503774-32.575997a44.593327 44.593327 0 0 1 32.244405-13.13788z" fill="#FFFFFF" p-id="2323"></path></svg>