<?xml version="1.0" standalone="no"?><!DOCTYPE svg PUBLIC "-//W3C//DTD SVG 1.1//EN" "http://www.w3.org/Graphics/SVG/1.1/DTD/svg11.dtd"><svg t="1689135260583" class="icon" viewBox="0 0 1024 1024" version="1.1" xmlns="http://www.w3.org/2000/svg" p-id="56666" data-spm-anchor-id="a313x.7781069.0.i11" xmlns:xlink="http://www.w3.org/1999/xlink" width="32" height="32"><path d="M853.333333 1024 170.666667 1024c-93.866667 0-170.666667-76.8-170.666667-170.666667L0 170.666667c0-93.866667 76.8-170.666667 170.666667-170.666667l682.666667 0c93.866667 0 170.666667 76.8 170.666667 170.666667l0 682.666667C1024 947.2 947.2 1024 853.333333 1024zM170.666667 85.333333C123.733333 85.333333 85.333333 123.733333 85.333333 170.666667l0 682.666667c0 46.933333 38.4 85.333333 85.333333 85.333333l682.666667 0c46.933333 0 85.333333-38.4 85.333333-85.333333L938.666667 170.666667c0-46.933333-38.4-85.333333-85.333333-85.333333L170.666667 85.333333z" p-id="56667"></path><path d="M981.333333 384 42.666667 384C17.066667 384 0 366.933333 0 341.333333s17.066667-42.666667 42.666667-42.666667l938.666667 0c25.6 0 42.666667 17.066667 42.666667 42.666667S1006.933333 384 981.333333 384z" p-id="56668"></path><path d="M640 768c-12.8 0-21.333333-4.266667-29.866667-12.8l-128-128c-17.066667-17.066667-17.066667-42.666667 0-59.733333s42.666667-17.066667 59.733333 0l128 128c17.066667 17.066667 17.066667 42.666667 0 59.733333C661.333333 763.733333 652.8 768 640 768z" p-id="56669"></path><path d="M384 768c-12.8 0-21.333333-4.266667-29.866667-12.8-17.066667-17.066667-17.066667-42.666667 0-59.733333l128-128c17.066667-17.066667 42.666667-17.066667 59.733333 0s17.066667 42.666667 0 59.733333l-128 128C405.333333 763.733333 396.8 768 384 768z" p-id="56670"></path></svg>