<svg xmlns="http://www.w3.org/2000/svg" width="30.72" height="30.72" viewBox="0 0 23.04 23.04"><path fill="#d0d7de" d="M2.186 7.155h18.756v12.66H2.186Z"/><path fill="#eda914" d="M8.985.504h6.08v3.572h-6.08Zm11.285 0h-4.345v3.572h6.08v-1.19c.008-1.32-.774-2.382-1.735-2.382Z"/><path fill="#16385a" d="M8.118.504H2.905c-.961 0-1.735.826-1.735 1.845v17.23c0 1.319.774 2.381 1.735 2.381H20.27c.961 0 1.735-1.062 1.735-2.382V5.268H8.118Zm.867 17.884h-6.08v-3.573h6.08Zm11.285 0h-9.55v-3.573h9.55ZM14.198 8.85h6.08v3.573h-6.08Zm-1.743 0v3.573h-9.55V8.85Z"/></svg>