<?xml version="1.0" standalone="no"?>
<!DOCTYPE svg PUBLIC "-//W3C//DTD SVG 20010904//EN" "http://www.w3.org/TR/2001/REC-SVG-20010904/DTD/svg10.dtd">
<!-- Created using Krita: https://krita.org -->
<svg xmlns="http://www.w3.org/2000/svg" 
    xmlns:xlink="http://www.w3.org/1999/xlink"
    xmlns:krita="http://krita.org/namespaces/svg/krita"
    xmlns:sodipodi="http://sodipodi.sourceforge.net/DTD/sodipodi-0.dtd"
    width="23.04pt"
    height="23.04pt"
    viewBox="0 0 23.04 23.04">
<defs/>
<path id="shape0" transform="matrix(0.0250124845811531 0 0 0.0250124845811531 2.35042315254927 4.70910044855199)" fill="#889ca9" stroke-opacity="0" stroke="#000000" stroke-width="0" stroke-linecap="square" stroke-linejoin="bevel" d="M673.2 0L60 0C26.9 0 0 26.9 0 60L0 386.2C0 419.3 26.9 446.2 60 446.2L673.1 446.2C706.2 446.2 733.1 419.3 733.1 386.2L733.1 60C733.2 26.8 706.3 0 673.2 0Z" sodipodi:nodetypes="ccccccccc"/><path id="shape1" transform="matrix(0.0250124845811531 0 0 0.0250124845811531 4.709100448552 1.01475647591567)" fill="#fef8e6" stroke-opacity="0" stroke="#000000" stroke-width="0" stroke-linecap="square" stroke-linejoin="bevel" d="M544.6 196.9L544.6 319.9C544.6 333.5 533.6 344.5 520 344.5L24.6 344.5C11 344.5 0 333.5 0 319.9L0 40C0 17.9 17.9 0 40 0L347.8 0Z" sodipodi:nodetypes="ccccccccc"/><path id="shape2" transform="matrix(0.0250124845811531 0 0 0.0250124845811531 17.1853277576312 4.70910044855199)" fill="#73859e" stroke-opacity="0" stroke="#000000" stroke-width="0" stroke-linecap="square" stroke-linejoin="bevel" d="M140 60L140 386.2C140 419.3 113.1 446.2 80 446.2L0 446.2C33.1 446.2 60 419.3 60 386.2L60 60C60.1 26.8 33.2 0 0.1 0L80.1 0C113.2 0 140.1 26.8 140 60Z" sodipodi:nodetypes="ccccccccc"/><path id="shape3" transform="matrix(0.0250124845811531 0 0 0.0250124845811531 15.7145936642593 5.93971468994473)" fill="#fad672" stroke-opacity="0" stroke="#000000" stroke-width="0" stroke-linecap="square" stroke-linejoin="bevel" d="M104.6 0L104.6 123C104.6 136.6 93.6 147.6 80 147.6L0 147.6C13.6 147.6 24.6 136.6 24.6 123L24.6 0Z" sodipodi:nodetypes="ccccccc"/><path id="shape4" transform="matrix(0.0250124845811531 0 0 0.0250124845811531 1.01475647591568 8.4009431727302)" fill="#50e6cc" stroke-opacity="0" stroke="#000000" stroke-width="0" stroke-linecap="square" stroke-linejoin="bevel" d="M780 0L60 0C26.9 0 0 26.9 0 60L0 386.2C0 419.3 26.9 446.2 60 446.2L780 446.2C813.1 446.2 840 419.3 840 386.2L840 60C840 26.9 813.1 0 780 0Z" sodipodi:nodetypes="ccccccccc"/><path id="shape5" transform="matrix(0.0250124845811531 0 0 0.0250124845811531 18.5234956827229 8.4009431727302)" fill="#45dabd" stroke-opacity="0" stroke="#000000" stroke-width="0" stroke-linecap="square" stroke-linejoin="bevel" d="M140 60L140 386.2C140 419.3 113.1 446.2 80 446.2L0 446.2C33.1 446.2 60 419.3 60 386.2L60 60C60 26.9 33.1 0 0 0L80 0C113.1 0 140 26.9 140 60Z" sodipodi:nodetypes="ccccccccc"/><path id="shape6" transform="matrix(0.0250124845811531 0 0 0.0250124845811531 13.4084425858771 1.01475647591567)" fill="#fcefad" stroke-opacity="0" stroke="#000000" stroke-width="0" stroke-linecap="square" stroke-linejoin="bevel" d="M0 172.3C0 186.1 10.8 196.9 24.6 196.9L196.9 196.9L0 0Z" sodipodi:nodetypes="ccccc"/><path id="shape7" transform="matrix(0.0250124845811531 0 0 0.0250124845811531 4.709100448552 14.1463108810211)" fill="#fef8e6" stroke-opacity="0" stroke="#000000" stroke-width="0" stroke-linecap="square" stroke-linejoin="bevel" d="M544.6 0L544.6 275C544.6 297.1 526.7 315 504.6 315L40 315C17.9 315 0 297.1 0 275L0 0Z" sodipodi:nodetypes="ccccccc"/><path id="shape8" transform="matrix(0.0250124845811531 0 0 0.0250124845811531 15.3294014017096 14.1463108810211)" fill="#fcefad" stroke-opacity="0" stroke="#000000" stroke-width="0" stroke-linecap="square" stroke-linejoin="bevel" d="M120 0L120 275C120 297.1 102.1 315 80 315L0 315C22.1 315 40 297.1 40 275L40 0Z" sodipodi:nodetypes="ccccccc"/><path id="shape9" transform="matrix(0.0250124845811531 0 0 0.0250124845811531 2.96573027324562 13.646061189398)" fill="#889ca9" stroke-opacity="0" stroke="#000000" stroke-width="0" stroke-linecap="square" stroke-linejoin="bevel" d="M664 40L20 40C9 40 0 31 0 20C0 9 9 0 20 0L664 0C675 0 684 9 684 20C684 31 675 40 664 40Z" sodipodi:nodetypes="ccccccc"/><path id="shape10" transform="matrix(0.0250124845811531 0 0 0.0250124845811531 2.96573027324561 10.847164164767)" fill="#f77490" stroke-opacity="0" stroke="#000000" stroke-width="0" stroke-linecap="square" stroke-linejoin="bevel" d="M108.7 40L20 40C9 40 0 31 0 20C0 9 9 0 20 0L108.7 0C119.7 0 128.7 9 128.7 20C128.7 31 119.7 40 108.7 40Z" sodipodi:nodetypes="ccccccc"/><path id="shape11" transform="matrix(0.0250124845811531 0 0 0.0250124845811531 6.50499684147882 16.094783429893)" fill="#46cdfb" stroke-opacity="0" stroke="#000000" stroke-width="0" stroke-linecap="square" stroke-linejoin="bevel" d="M381 125.1L20 125.1C9 125.1 0 116.1 0 105.1C0 94.1 9 85.1 20 85.1L381 85.1C392 85.1 401 94.1 401 105.1C401 116.1 392 125.1 381 125.1ZM381 40L20 40C9 40 0 31 0 20C0 9 9 0 20 0L381 0C392 0 401 9 401 20C401 31 392 40 381 40Z" sodipodi:nodetypes="cccccccccccccc"/><path id="shape12" transform="matrix(0.0250124845811531 0 0 0.0250124845811531 17.5730212686391 13.646061189398)" fill="#73859e" stroke-opacity="0" stroke="#000000" stroke-width="0" stroke-linecap="square" stroke-linejoin="bevel" d="M100 20C100 31 91 40 80 40L0 40C11 40 20 31 20 20C20 9 11 0 0 0L80 0C91 0 100 9 100 20Z" sodipodi:nodetypes="ccccccc"/><path id="shape13" transform="matrix(0.0250124845811531 0 0 0.0250124845811531 4.68408796397083 10.847164164767)" fill="#f65d73" stroke-opacity="0" stroke="#000000" stroke-width="0" stroke-linecap="square" stroke-linejoin="bevel" d="M60 20C60 31.1 51 40 40 40L0 40C11 40 20 31.1 20 20C20 9 11 0 0 0L40 0C51.1 0 60 8.9 60 20Z" sodipodi:nodetypes="ccccccc"/><path id="shape14" transform="matrix(0.0250124845811531 0 0 0.0250124845811531 14.0337547004059 16.094783429893)" fill="#15b7ff" stroke-opacity="0" stroke="#000000" stroke-width="0" stroke-linecap="square" stroke-linejoin="bevel" d="M100 105.1C100 116.1 91 125.1 80 125.1L0 125.1C11 125.1 20 116.1 20 105.1C20 94.1 11 85.1 0 85.1L80 85.1C91 85.1 100 94.1 100 105.1ZM100 20C100 31 91 40 80 40L0 40C11 40 20 31 20 20C20 8.9 11 0 0 0L80 0C91 0 100 8.9 100 20Z" sodipodi:nodetypes="cccccccccccccc"/><path id="shape15" transform="matrix(0.0250124845811531 0 0 0.0250124845811531 0.764631630104154 0.764631630104152)" fill="#00435b" stroke-opacity="0" stroke="#000000" stroke-width="0" stroke-linecap="square" stroke-linejoin="bevel" d="M806.5 297.3L806.5 217.8C806.6 199.1 799.3 181.5 786.1 168.3C772.9 155 755.3 147.7 736.6 147.7L657.3 147.7L512.6 2.9C512.3 2.6 511.9 2.3 511.6 2C511.5 1.9 511.4 1.9 511.3 1.8C510.9 1.5 510.6 1.3 510.2 1.1L510.1 1.1C509.7 0.9 509.4 0.8 509 0.6C508.9 0.6 508.8 0.5 508.7 0.5C508.3 0.4 507.9 0.2 507.5 0.2C507.1 0.1 506.7 0.1 506.2 0L197.7 0C170.1 0 147.7 22.4 147.7 50L147.7 147.7L123.4 147.7C84.8 147.7 53.4 179.1 53.4 217.7L53.4 297.3C22.4 304.8 0 332.6 0 365.3L0 691.5C0 730.1 31.4 761.5 70 761.5L147.7 761.5L147.7 810C147.7 837.6 170.1 860 197.7 860L662.3 860C689.9 860 712.3 837.6 712.3 810L712.3 761.5L790 761.5C828.6 761.5 860 730.1 860 691.5L860 365.3C860 332.5 837.6 304.7 806.5 297.3ZM736.6 167.7C750 167.7 762.5 172.9 772 182.4C781.4 191.8 786.6 204.4 786.5 217.7L786.5 295.3L712.3 295.3L712.3 208.2C712.7 205.2 711.7 202.1 709.5 199.9L677.4 167.8L736.6 167.8ZM515.5 34.2L678.2 196.9L530.1 196.9C521.8 196.9 515.5 190.6 515.5 182.3ZM167.7 50C167.7 33.5 181.2 20 197.7 20L495.5 20L495.5 182.3C495.5 201.7 510.7 216.9 530.1 216.9L692.3 216.9L692.3 295.3L167.7 295.3ZM123.4 167.7L147.7 167.7L147.7 295.3L73.4 295.3L73.4 217.7C73.4 190.1 95.8 167.7 123.4 167.7ZM108 545C102.5 545 98 540.5 98 535C98 529.5 102.5 525 108 525L752 525C757.5 525 762 529.5 762 535C762 540.5 757.5 545 752 545ZM692.3 810C692.3 826.5 678.8 840 662.3 840L197.7 840C181.2 840 167.7 826.5 167.7 810L167.7 565L692.3 565ZM840 691.5C840 719.1 817.6 741.5 790 741.5L712.3 741.5L712.3 565L752 565C768.5 565 782 551.5 782 535C782 518.5 768.5 505 752 505L108 505C91.5 505 78 518.5 78 535C78 551.5 91.5 565 108 565L147.7 565L147.7 741.5L70 741.5C42.4 741.5 20 719.1 20 691.5L20 365.3C20 339.7 39.1 318.4 64.5 315.6C66.3 315.4 68.1 315.3 70 315.3L790 315.3C791.8 315.3 793.6 315.4 795.4 315.6C820.8 318.3 840 339.7 840 365.3Z" sodipodi:nodetypes="cccccccccccccccccccccccccccccccccccccccccccccccccccccccccccccccccccccccccccccccccccccccccccccccccc"/><path id="shape16" transform="matrix(0.0250124845811531 0 0 0.0250124845811531 2.71560542743409 10.5970393189555)" fill="#00435b" stroke-opacity="0" stroke="#000000" stroke-width="0" stroke-linecap="square" stroke-linejoin="bevel" d="M118.7 0L30 0C13.5 0 0 13.5 0 30C0 46.5 13.5 60 30 60L118.7 60C135.2 60 148.7 46.5 148.7 30C148.7 13.5 135.2 0 118.7 0ZM118.7 40L30 40C24.5 40 20 35.5 20 30C20 24.5 24.5 20 30 20L118.7 20C124.2 20 128.7 24.5 128.7 30C128.7 35.5 124.2 40 118.7 40ZM532.5 294.9L171.5 294.9C155 294.9 141.5 308.4 141.5 324.9C141.5 341.4 155 354.9 171.5 354.9L532.5 354.9C549 354.9 562.5 341.4 562.5 324.9C562.5 308.4 549 294.9 532.5 294.9ZM532.5 334.9L171.5 334.9C166 334.9 161.5 330.4 161.5 324.9C161.5 319.4 166 314.9 171.5 314.9L532.5 314.9C538 314.9 542.5 319.4 542.5 324.9C542.5 330.4 538 334.9 532.5 334.9ZM532.5 209.8L171.5 209.8C155 209.8 141.5 223.3 141.5 239.8C141.5 256.3 155 269.8 171.5 269.8L532.5 269.8C549 269.8 562.5 256.3 562.5 239.8C562.5 223.3 549 209.8 532.5 209.8ZM532.5 249.8L171.5 249.8C166 249.8 161.5 245.3 161.5 239.8C161.5 234.3 166 229.8 171.5 229.8L532.5 229.8C538 229.8 542.5 234.3 542.5 239.8C542.5 245.3 538 249.8 532.5 249.8Z" sodipodi:nodetypes="cccccccccccccccccccccccccccccccccccccccccc"/>
</svg>
