<?xml version="1.0" standalone="no"?>
<!DOCTYPE svg PUBLIC "-//W3C//DTD SVG 20010904//EN" "http://www.w3.org/TR/2001/REC-SVG-20010904/DTD/svg10.dtd">
<!-- Created using Krita: https://krita.org -->
<svg xmlns="http://www.w3.org/2000/svg" 
    xmlns:xlink="http://www.w3.org/1999/xlink"
    xmlns:krita="http://krita.org/namespaces/svg/krita"
    xmlns:sodipodi="http://sodipodi.sourceforge.net/DTD/sodipodi-0.dtd"
    width="22.32pt"
    height="22.32pt"
    viewBox="0 0 22.32 22.32">
<defs/>
<path id="shape0" transform="matrix(0.983483783126834 0 0 0.983483783126834 0.519688950350782 0.51624675710984)" fill="#01579b" stroke-opacity="0" stroke="#000000" stroke-width="0" stroke-linecap="square" stroke-linejoin="bevel" d="M1.067 0L18.221 0L21.638 3.417L21.638 20.57C21.638 21.158 21.156 21.639 20.569 21.639L1.067 21.639C0.784181 21.6377 0.513066 21.5245 0.313268 21.3243C0.11347 21.1241 0.00078841 20.8528 0 20.57L1.11022e-16 1.069C1.11022e-16 0.482 0.481 0 1.068 0Z" sodipodi:nodetypes="ccccccccccc"/><path id="shape1" transform="matrix(0.983483783126834 0 0 0.983483783126834 4.75653708806118 0.51624675710984)" fill="#0277bd" stroke-opacity="0" stroke="#000000" stroke-width="0" stroke-linecap="square" stroke-linejoin="bevel" d="M0.112 0L12.915 0L12.915 5.378C12.915 6.1 12.328 6.693 11.6 6.693L1.426 6.693C1.07771 6.69221 0.743571 6.55328 0.497385 6.30691C0.251198 6.06054 0.112528 5.72629 0.112 5.378ZM13.026 21.645L0 21.645L0 14.847C0 14.06 0.64 13.42 1.426 13.42L11.606 13.42C12.392 13.42 13.032 14.06 13.032 14.847Z" sodipodi:nodetypes="ccccccccccccccc"/><path id="shape2" transform="matrix(0.983483783126834 0 0 0.983483783126834 5.28171742825091 0.51624675710984)" fill="#eeeeee" stroke-opacity="0" stroke="#000000" stroke-width="0" stroke-linecap="square" stroke-linejoin="bevel" d="M8.88178e-16 0L11.958 0L11.958 5.378C11.958 5.865 11.559 6.27 11.066 6.27L0.892 6.27C0.65584 6.26895 0.429416 6.17457 0.262423 6.00758C0.0954312 5.84058 0.00105195 5.61416 0 5.378ZM8.88178e-16 21.645L11.958 21.645L11.958 14.847C11.958 14.359 11.559 13.954 11.066 13.954L0.892 13.954C0.405 13.954 8.88178e-16 14.354 8.88178e-16 14.847Z" sodipodi:nodetypes="ccccccccccccccc"/><path id="shape3" transform="matrix(0.983483783126834 0 0 0.983483783126834 12.8447077204963 0.51624675710984)" fill="#424242" stroke-opacity="0" stroke="#000000" stroke-width="0" stroke-linecap="square" stroke-linejoin="bevel" d="M0 0L2.625 0L2.625 5.125L0 5.125Z" sodipodi:nodetypes="ccccc"/><path id="shape4" transform="matrix(0.983483783126834 0 0 0.983483783126834 6.96150772983154 17.0525430866044)" fill="#757575" stroke-opacity="0" stroke="#000000" stroke-width="0" stroke-linecap="square" stroke-linejoin="bevel" d="M0 0L8.542 0L8.542 0.54L0 0.54ZM0 2.377L8.542 2.377L8.542 2.917L0 2.917Z" sodipodi:nodetypes="cccccccccc"/>
</svg>
