<?xml version="1.0" standalone="no"?><!DOCTYPE svg PUBLIC "-//W3C//DTD SVG 1.1//EN" "http://www.w3.org/Graphics/SVG/1.1/DTD/svg11.dtd"><svg t="1689142892198" class="icon" viewBox="0 0 1024 1024" version="1.1" xmlns="http://www.w3.org/2000/svg" p-id="151694" xmlns:xlink="http://www.w3.org/1999/xlink" width="32" height="32"><path d="M517.12 888.9344c-129.5872 0-241.7152-45.312-333.312-134.6048-74.3424-72.4992-115.6608-156.4672-133.6832-200.0896-11.4176-27.648-10.9056-59.136 1.4336-86.272 18.9952-41.8816 62.0544-122.4192 136.4992-191.8464 91.4944-85.2992 201.3184-128.5632 326.4-128.5632 124.8768 0 235.1616 43.1104 327.8336 128.1024 75.52 69.2736 119.808 149.76 139.4688 191.5904 12.9536 27.4944 13.6704 59.4432 2.048 87.6032-18.0736 43.6224-59.4944 127.5904-133.888 199.9872-91.4432 88.9344-203.4176 134.0928-332.8 134.0928z m-410.1632-358.1952c36.864 89.1904 150.6304 296.704 410.1632 296.704 259.2256 0 373.0432-207.1552 409.9584-296.192 5.0688-12.1856 4.7616-26.0096-0.8704-37.888-40.2432-85.504-160.9728-284.416-411.6992-284.416S146.3808 407.808 107.52 493.312a47.30368 47.30368 0 0 0-0.5632 37.4272z" fill="#474A54" p-id="151695"></path><path d="M517.12 518.1952m-151.04 0a151.04 151.04 0 1 0 302.08 0 151.04 151.04 0 1 0-302.08 0Z" fill="#ffa115" p-id="151696"></path><path d="M517.12 699.9552c-100.2496 0-181.76-81.5104-181.76-181.76 0-100.1984 81.5104-181.76 181.76-181.76s181.76 81.5616 181.76 181.76c0 100.2496-81.5616 181.76-181.76 181.76z m0-302.08c-66.3552 0-120.32 53.9648-120.32 120.32s53.9648 120.32 120.32 120.32 120.32-53.9648 120.32-120.32-53.9648-120.32-120.32-120.32z" fill="#474A54" p-id="151697"></path></svg>